# Blender v2.76 (sub 0) OBJ File: 'cube.blend'
# www.blender.org
mtllib cube.mtl
o Cube.002
v 1.000000 -1.000000 -1.000000
v 1.000000 -1.000000 1.000000
v -1.000000 -1.000000 1.000000
v -1.000000 -1.000000 -1.000000
v 1.000000 1.000000 -0.999999
v -1.000000 1.000000 -1.000000
v -1.000000 1.000000 1.000000
v 0.999999 1.000000 1.000001
vt 0.249684 0.666956
vt 0.000802 0.666956
vt 0.000802 0.335112
vt 0.498618 0.668223
vt 0.498618 0.338074
vt 0.746230 0.338075
vt 0.499522 0.335343
vt 0.499522 0.667594
vt 0.250334 0.667593
vt 0.749162 0.663599
vt 0.749162 0.335960
vt 0.994891 0.335960
vt 0.501341 0.670740
vt 0.748336 0.670740
vt 0.748336 1.000067
vt 0.501654 0.005622
vt 0.748056 0.005622
vt 0.748056 0.334158
vt 0.249684 0.335112
vt 0.746230 0.668223
vt 0.250334 0.335343
vt 0.994891 0.663599
vt 0.501341 1.000067
vt 0.501654 0.334158
vn 0.000000 -1.000000 -0.000000
vn -0.000000 1.000000 0.000000
vn 1.000000 0.000000 0.000000
vn -0.000000 -0.000000 1.000000
vn -1.000000 -0.000000 0.000000
vn 0.000000 0.000000 -1.000000
usemtl Mtl.002
s 1
f 2/1/1 3/2/1 4/3/1
f 5/4/2 6/5/2 7/6/2
f 5/7/3 8/8/3 2/9/3
f 8/10/4 7/11/4 3/12/4
f 7/13/5 6/14/5 4/15/5
f 1/16/6 4/17/6 6/18/6
f 1/19/1 2/1/1 4/3/1
f 8/20/2 5/4/2 7/6/2
f 1/21/3 5/7/3 2/9/3
f 2/22/4 8/10/4 3/12/4
f 3/23/5 7/13/5 4/15/5
f 5/24/6 1/16/6 6/18/6
